<svg xmlns="http://www.w3.org/2000/svg" fill="none" viewBox="0 0 24 24" data-xds="IconOtherServices" class="icon-with-badge__IconWithBadge-sc-def5423-2 nav-item-styles__StyledIconWithBadge-sc-ed3b7608-5 bJqyCA" aria-label="Business solutions"><path fill="currentColor" d="M6 4a2 2 0 1 1-4 0 2 2 0 0 1 4 0M14 4a2 2 0 1 1-4 0 2 2 0 0 1 4 0M22 4a2 2 0 1 1-4 0 2 2 0 0 1 4 0M6 12a2 2 0 1 1-4 0 2 2 0 0 1 4 0M14 12a2 2 0 1 1-4 0 2 2 0 0 1 4 0M22 12a2 2 0 1 1-4 0 2 2 0 0 1 4 0M6 20a2 2 0 1 1-4 0 2 2 0 0 1 4 0M14 20a2 2 0 1 1-4 0 2 2 0 0 1 4 0M22 20a2 2 0 1 1-4 0 2 2 0 0 1 4 0"></path></svg>